<?xml version="1.0" encoding="utf-8"?>
<!-- Generator: Adobe Illustrator 23.0.3, SVG Export Plug-In . SVG Version: 6.00 Build 0)  -->
<svg version="1.1" id="Layer_1" xmlns="http://www.w3.org/2000/svg" xmlns:xlink="http://www.w3.org/1999/xlink" x="0px" y="0px"
	 viewBox="0 0 480 180" style="enable-background:new 0 0 480 180;" xml:space="preserve">
<g>
	<path d="M72.7,101.1h26.9v15.6H54.9V38.7h17.8V101.1z"/>
	<path d="M130.6,66.8c6.5,0,11.9,2.2,15.9,6.1v-4.6h16.7v48.5h-16.6v-5.5h-0.2c-3.6,4-9.3,6.9-15.9,6.9c-14.2,0-24.1-11.4-24.1-25.6
		S116.4,66.8,130.6,66.8z M135.6,103.9c6.5,0,11.3-4.7,11.3-11.4c0-6.7-5-11.4-11.3-11.4c-6.3,0-11.4,4.7-11.4,11.4
		C124.3,99.1,128.8,103.9,135.6,103.9z"/>
	<path d="M232,68.2l-38.1,73.1h-19.3l16.7-32.2l-23-41h19.3l13.5,24.9l11.5-24.9H232z"/>
	<path d="M262.8,66.8c16.1,0,29,10.6,29,25.7c0,14.9-12.2,25.6-29,25.6c-17.5,0-29.2-10.7-29.2-25.6
		C233.6,77.4,246.4,66.8,262.8,66.8z M262.7,103.9c6.5,0,11.3-4.7,11.3-11.4c0-6.7-5-11.4-11.3-11.4c-6.3,0-11.4,4.7-11.4,11.4
		C251.4,99.1,255.9,103.9,262.7,103.9z"/>
	<path d="M317,91.3c0,9.6,2.6,13.2,9.6,13.2c7,0,9.6-3.7,9.6-13.2V68.2h16.7v27.2c0,16.3-8.1,22.8-26.3,22.8
		c-18.2,0-26.3-6.5-26.3-22.8V68.2H317V91.3z"/>
	<path d="M367.2,50.1H384v18.1h10.2V81H384v15.4c0,4.5,1.1,6.7,3.8,6.7c2.2,0,4.2-1.5,4.2-1.5l4.2,13.5c0,0-5.4,3-12.3,3
		c-13.3,0-16.6-9.9-16.6-18.5V81h-7V68.2h7V50.1z"/>
	<path d="M425.1,107.4c0,6-4.8,10.8-10.9,10.8c-6,0-10.8-4.8-10.8-10.8c0-6.1,4.8-10.9,10.8-10.9
		C420.2,96.5,425.1,101.3,425.1,107.4z"/>
</g>
</svg>
